<?xml version="1.0" standalone="no"?>
<svg viewBox="0 0 200 200" xmlns="http://www.w3.org/2000/svg">
  <path fill="#F1C21B" d="M41.6,-69C53.4,-65.1,62.2,-53.1,64.2,-40.2C66.2,-27.4,61.3,-13.7,62.5,0.7C63.7,15,70.9,30.1,69.4,43.8C67.9,57.4,57.6,69.7,44.6,77.8C31.6,85.8,15.8,89.6,3,84.4C-9.7,79.1,-19.4,64.7,-33,57C-46.7,49.3,-64.2,48.3,-68.6,39.9C-72.9,31.5,-64,15.7,-64.7,-0.4C-65.5,-16.6,-75.9,-33.2,-72.8,-43.7C-69.6,-54.1,-52.9,-58.4,-38.5,-60.8C-24.1,-63.2,-12.1,-63.8,1.4,-66.3C14.9,-68.7,29.7,-72.9,41.6,-69Z" transform="translate(100 100)" />
</svg>
