<?xml version="1.0" standalone="no"?>
<svg viewBox="0 0 200 200" xmlns="http://www.w3.org/2000/svg">
  <path fill="#A7F0BA" d="M45.7,-78.1C59.8,-71,72.1,-59.9,80,-46.2C87.9,-32.5,91.3,-16.2,89,-1.3C86.8,13.6,78.8,27.3,69.5,38.6C60.3,49.9,49.8,59,38,68.8C26.2,78.6,13.1,89.2,-0.8,90.7C-14.8,92.1,-29.6,84.5,-41.6,74.8C-53.6,65.1,-62.8,53.3,-68.6,40.5C-74.5,27.7,-77,13.8,-79,-1.1C-81,-16.1,-82.4,-32.3,-77.5,-46.7C-72.5,-61.1,-61.2,-73.8,-47.2,-80.9C-33.3,-87.9,-16.6,-89.4,-0.4,-88.7C15.8,-88,31.6,-85.1,45.7,-78.1Z" transform="translate(100 100)" />
</svg>
